<?xml version="1.0" encoding="utf-8" ?><svg xmlns="http://www.w3.org/2000/svg" xmlns:xlink="http://www.w3.org/1999/xlink" width="48" height="48" viewBox="0 0 48 48"><path fill="#EAD7C3" transform="scale(0.046875 0.046875)" d="M0 0L1024 0L1024 1024L0 1024L0 0Z"/><path fill="#FBF6EF" transform="scale(0.046875 0.046875)" d="M400.929 382.847C400.705 382.562 400.48 382.279 400.271 381.983C393.565 372.46 391.285 357.035 393.251 345.717C395.849 330.754 410.245 319.444 421.937 311.2C433.581 302.99 451.245 295.165 465.867 298.025C481.614 301.105 492.117 328.393 498.808 341.513C501.593 346.974 504.686 352.397 508.237 357.399C515.728 367.95 528.855 373.542 541.404 375.573C541.545 375.596 541.687 375.615 541.829 375.636C541.441 377.734 540.994 379.838 540.703 381.951C527.126 383.938 513.974 382.574 502.687 374.163C496.22 369.345 491.445 362.747 486.847 356.219L486.568 357.184C483.044 369.155 473.297 382.68 479.964 395.066C484.079 402.712 490.741 409.037 495.143 416.703C506.715 436.856 512.374 460.781 513.504 483.907C513.858 491.15 513.32 498.42 513.573 505.668C514.375 500.141 513.759 494.475 514.005 488.906C523.035 493.352 532.05 497.836 541.348 501.7C547.099 504.091 553.216 505.858 558.86 508.433C562.26 489.982 567.531 471.652 572.009 453.435C578.659 425.467 585.621 397.575 592.892 369.763C590.984 368.882 589.073 368.2 587.667 366.581C586.836 363.096 598.594 316.262 600.962 312.348C601.436 311.565 601.592 311.521 602.452 311.324C607.766 310.111 634.58 316.944 641.164 318.471C643.398 312.128 646.55 306.459 652.818 303.299C657.548 300.914 663.363 300.598 668.372 302.278C673.887 304.18 678.367 308.284 680.746 313.611C682.698 317.95 683.078 322.693 682.792 327.389C698.283 330.178 714.434 332.519 729.542 336.933C732.664 329.431 736.706 322.63 744.693 319.445C749.673 317.418 755.26 317.482 760.193 319.621C766.14 322.187 770.675 327.47 772.933 333.474C774.348 337.234 774.652 340.907 774.887 344.879C782.424 346.4 791.748 347.031 798.719 350.093C805.139 360.251 813.566 369.223 819.438 379.689C817.205 386.899 813.783 395.483 813.702 403.04C813.61 411.645 815.655 420.759 816.52 429.351L824.305 501.484L829.821 553.296C830.44 558.852 830.328 565.712 831.799 570.989C841.173 578.057 849.264 590.459 854.77 600.684C870.296 629.514 874.414 666.137 864.957 697.57C857.439 722.558 843.696 743.544 820.225 755.945C794.023 769.788 766.277 767.881 737.846 765.45C719.476 763.879 701.146 761.654 682.776 760.205C669.762 759.258 656.698 759.22 643.678 760.093C629.819 761.005 615.958 762.567 602.138 763.953C547.32 769.452 493.089 777.706 438.658 786.111C401.187 791.897 361.903 799.366 324.139 801.305C292.772 802.915 260.567 801.03 230.431 791.592C202.627 782.884 180.881 768.201 167.207 741.881C147.084 703.149 147.998 646.282 161.302 605.173C166.268 589.828 173.38 575.779 182.218 562.321C205.974 526.149 233.989 507.286 271.811 487.972C273.808 476.879 273.296 467.857 271.441 456.786C270.901 453.559 270.5 449.958 269.146 446.961C265.954 446.215 264.457 443.897 262.494 441.478C262.24 437.535 262.605 433.787 263.242 429.902C258 424.465 254.155 413.549 252.877 406.147C250.735 393.733 254.966 383.953 262.065 373.945C273.158 358.307 292.574 343.945 311.768 340.745C334.308 336.986 343.055 349.323 352.983 366.925L364.769 387.845C368.463 394.374 372.546 401.472 378.85 405.836C388.652 412.621 402.837 410.534 413.813 408.714C413.214 405.191 412.479 401.859 411.407 398.449C409.906 398.635 408.288 398.907 406.775 398.741C404.934 398.538 403.037 397.501 401.918 396.021C399.275 392.525 400.495 386.854 400.929 382.847Z"/><path fill="#A17E45" transform="scale(0.046875 0.046875)" d="M641.164 318.471C643.398 312.128 646.55 306.459 652.818 303.299C657.548 300.914 663.363 300.598 668.372 302.278C673.887 304.18 678.367 308.284 680.746 313.611C682.698 317.95 683.078 322.693 682.792 327.389C698.283 330.178 714.434 332.519 729.542 336.933C732.664 329.431 736.706 322.63 744.693 319.445C749.673 317.418 755.26 317.482 760.193 319.621C766.14 322.187 770.675 327.47 772.933 333.474C774.348 337.234 774.652 340.907 774.887 344.879C782.424 346.4 791.748 347.031 798.719 350.093C805.139 360.251 813.566 369.223 819.438 379.689C817.205 386.899 813.783 395.483 813.702 403.04C813.61 411.645 815.655 420.759 816.52 429.351L824.305 501.484L829.821 553.296C830.44 558.852 830.328 565.712 831.799 570.989C832.611 580.507 833.595 590.009 834.752 599.491L788.856 590.779C779.332 597.667 770.36 605.34 760.777 612.197C743.018 610.967 723.836 606.021 706.244 602.521L629.763 587.492C611.389 583.818 592.835 579.552 574.262 577.05C570.553 573.507 567.221 569.535 563.693 565.81C558.592 560.422 553.318 555.215 548.408 549.648C551.669 535.854 555.153 522.114 558.86 508.433C562.26 489.982 567.531 471.652 572.009 453.435C578.659 425.467 585.621 397.575 592.892 369.763C590.984 368.882 589.073 368.2 587.667 366.581C586.836 363.096 598.594 316.262 600.962 312.348C601.436 311.565 601.592 311.521 602.452 311.324C607.766 310.111 634.58 316.944 641.164 318.471Z"/><path fill="#FBF6EF" transform="scale(0.046875 0.046875)" d="M600.383 370.081C613.08 373.446 626.061 375.552 638.975 377.884L681.051 385.729L735.961 395.842C750.491 398.608 764.981 401.765 779.651 403.714C769.427 445.387 759.441 487.118 749.694 528.905C745.579 546.079 741.958 563.362 737.184 580.374C708.769 574.274 679.95 569.729 651.43 564.075C620.056 557.856 588.766 550.589 557.253 545.178C568.199 502.486 578.829 459.714 589.142 416.864C592.935 401.268 596.349 385.624 600.383 370.081Z"/><path fill="#A17E45" transform="scale(0.046875 0.046875)" d="M617.542 470.275C618.936 470.621 620.069 470.823 621.526 470.765C623.956 468.024 625.222 461.592 626.52 458.107C633.016 440.667 647.13 428.384 663.88 420.793C669.149 418.405 681.004 412.997 686.685 415.398C687.748 415.847 687.797 415.854 688.235 416.965C687.761 418.451 686.316 419.529 684.95 420.174C682.036 421.551 678.522 422.006 675.449 423.025C667.074 425.72 659.181 429.729 652.065 434.903C642.366 442.102 635.347 451.162 631.527 462.651C630.131 466.852 629.371 472.877 626.139 476.069C624.134 476.898 622.448 477.1 620.276 476.966C615.133 476.649 601.106 474.086 597.746 470.348C596.447 465.056 601.015 448.764 602.495 442.965C603.318 439.74 604.518 436.377 607.516 434.609C613.328 433.91 624.495 436.862 630.091 438.855C629.019 440.201 628.059 441.637 627.071 443.047C622.994 451.12 619.486 461.465 617.542 470.275Z"/><path fill="#351721" transform="scale(0.046875 0.046875)" d="M614.65 441.262C618.716 441.939 622.953 442.928 627.071 443.047C622.994 451.12 619.486 461.465 617.542 470.275C614.69 469.79 611.914 469.288 609.126 468.497C611.237 459.517 612.917 450.328 614.65 441.262Z"/><path fill="#FBF6EF" transform="scale(0.046875 0.046875)" d="M604.141 467.648C605.311 461.814 607.36 445.053 609.527 440.844C611.217 440.347 612.969 440.913 614.65 441.262C612.917 450.328 611.237 459.517 609.126 468.497C607.516 468.089 605.783 467.914 604.141 467.648Z"/><path fill="#A17E45" transform="scale(0.046875 0.046875)" d="M592.028 489.018C592.454 489.002 592.881 488.981 593.308 488.996C598.781 489.192 621.482 493.588 624.396 497.461C625.439 498.847 625.26 501.395 624.998 503.017C624.569 505.678 620.069 521.772 618.881 524.01C618.075 525.53 616.919 526.428 615.547 527.415C613.249 527.546 611.08 527.238 608.826 526.842C603.426 525.892 585.057 523.168 582.851 518.739C580.851 514.721 585.111 505.575 585.943 501.224C586.924 496.085 587.42 492.153 592.028 489.018Z"/><path fill="#FBF6EF" transform="scale(0.046875 0.046875)" d="M594.185 495.6C602.447 497.253 610.615 499.103 618.939 500.463C617.182 507.179 615.881 514.763 613.258 521.166C604.976 519.337 596.59 517.869 588.26 516.264C590.128 509.339 592.522 502.584 594.185 495.6Z"/><path fill="#351721" transform="scale(0.046875 0.046875)" d="M635.95 528.487C636.362 522.86 638.593 510.884 641.263 505.894C641.984 504.545 642.677 503.752 644.193 503.348C648.14 502.298 661.8 505.055 665.35 507.448C666.944 508.522 667.216 509.68 667.591 511.431C668.186 515.487 663.527 531.29 661.031 534.845C660.298 535.888 659.63 536.304 658.392 536.443C654.332 536.902 640.822 534.65 637.83 531.94C636.804 531.011 636.399 529.745 635.95 528.487Z"/><path fill="#A17E45" transform="scale(0.046875 0.046875)" d="M658.734 533.182C660.959 527.764 662.097 521.839 664.037 516.291C664.867 513.918 665.224 512.58 667.591 511.431C668.186 515.487 663.527 531.29 661.031 534.845C660.298 535.888 659.63 536.304 658.392 536.443C654.332 536.902 640.822 534.65 637.83 531.94C636.804 531.011 636.399 529.745 635.95 528.487C638.971 527.258 654.022 532.35 658.734 533.182Z"/><path fill="#351721" transform="scale(0.046875 0.046875)" d="M685.421 541.995C685.322 541.883 685.218 541.776 685.126 541.659C684.031 540.279 683.469 539.056 683.66 537.268C684.156 532.614 688.489 516.795 691.769 514.062C693.283 513.679 694.577 513.663 696.125 513.914C699.879 514.523 709.376 516.156 712.591 517.727C713.735 518.286 714.44 519.136 715.184 520.137C715.968 524.969 712.131 541.446 709.189 545.412C708.283 546.633 706.604 547.023 705.142 547.113C701.918 547.313 687.926 544.17 685.421 541.995Z"/><path fill="#A17E45" transform="scale(0.046875 0.046875)" d="M715.184 520.137C715.968 524.969 712.131 541.446 709.189 545.412C708.283 546.633 706.604 547.023 705.142 547.113C701.918 547.313 687.926 544.17 685.421 541.995C685.739 541.125 686.116 540.294 686.502 539.452C688.223 538.881 702.708 543.01 706.314 543.505C711.094 536.706 710.497 526.999 715.184 520.137Z"/><path fill="#351721" transform="scale(0.046875 0.046875)" d="M647.565 478.316C647.23 477.242 647.226 476.534 647.408 475.419C648.159 470.804 651.898 455.545 655.289 453.129C659.317 452.582 673.795 455.652 677.051 458.077C678.758 459.348 678.977 460.645 679.148 462.611C678.138 467.189 675.239 482.213 671.904 484.942C668.808 487.475 658.685 484.417 655.15 483.424C651.546 482.41 649.674 481.828 647.695 478.521C647.654 478.452 647.609 478.385 647.565 478.316Z"/><path fill="#A17E45" transform="scale(0.046875 0.046875)" d="M647.565 478.316C654.922 478.248 663.035 483.246 669.999 481.842C674.198 478.523 673.505 469.188 676.321 464.513C677.086 463.243 677.789 463.044 679.148 462.611C678.138 467.189 675.239 482.213 671.904 484.942C668.808 487.475 658.685 484.417 655.15 483.424C651.546 482.41 649.674 481.828 647.695 478.521C647.654 478.452 647.609 478.385 647.565 478.316Z"/><path fill="#351721" transform="scale(0.046875 0.046875)" d="M695.458 489.983C695.279 488.99 695.09 488.039 695.192 487.025C695.747 481.524 698.625 468.54 702.754 465C707.306 463.376 717.93 466.784 722.402 468.587C724.317 469.359 725.005 470.032 725.841 471.907C727.065 476.088 722.784 491.234 720.613 495.167C719.911 496.44 719.223 497.187 717.757 497.492C714.199 498.232 700.391 494.83 697.538 492.645C696.573 491.907 696.045 491.019 695.458 489.983Z"/><path fill="#A17E45" transform="scale(0.046875 0.046875)" d="M695.458 489.983C702.45 489.337 710.763 495.213 716.539 494.245C721.278 493.451 721.433 475.786 725.298 472.293C725.462 472.144 725.66 472.036 725.841 471.907C727.065 476.088 722.784 491.234 720.613 495.167C719.911 496.44 719.223 497.187 717.757 497.492C714.199 498.232 700.391 494.83 697.538 492.645C696.573 491.907 696.045 491.019 695.458 489.983Z"/><path fill="#351721" transform="scale(0.046875 0.046875)" d="M706.464 441.503C706.44 440.403 706.468 439.242 706.655 438.154C707.171 435.158 711.25 418.993 713.491 417.457C719.843 416.389 729.344 419.305 735.555 421.022L737.411 424.725C737.498 428.474 733.395 445.346 730.922 448.156C730.149 449.035 727.961 449.009 726.866 448.963C724.064 448.844 709.439 446.389 708.01 444.591C707.252 443.638 706.891 442.624 706.464 441.503Z"/><path fill="#A17E45" transform="scale(0.046875 0.046875)" d="M737.411 424.725C737.498 428.474 733.395 445.346 730.922 448.156C730.149 449.035 727.961 449.009 726.866 448.963C724.064 448.844 709.439 446.389 708.01 444.591C707.252 443.638 706.891 442.624 706.464 441.503C712.888 441.12 719.696 444.707 726.15 445.28C726.718 445.331 728.08 445.426 728.607 445.169C732.263 443.386 732.088 428.774 736.673 425.259C736.914 425.074 737.165 424.903 737.411 424.725Z"/><path fill="#351721" transform="scale(0.046875 0.046875)" d="M606.692 319.682C617.652 321.309 628.545 323.627 639.507 325.342C639.395 332.231 639.588 339.755 643.963 345.522C646.045 348.266 649.017 350.258 652.505 350.561C655.579 350.829 658.471 349.767 660.824 347.805C665.576 343.841 666.761 338.566 667.393 332.75C687.85 336.138 708.163 340.321 728.609 343.744C728.344 350.859 728.517 357.78 733.532 363.467C735.726 365.957 738.81 367.666 742.174 367.739C745.225 367.805 747.998 366.47 750.064 364.265C754.239 359.806 754.164 354.49 754.086 348.8C765.723 352.166 779.787 353.939 791.856 355.743C791.271 360.318 790.003 364.893 788.983 369.393C787.257 378.692 785.603 388.124 783.128 397.253C768.797 394.204 754.261 391.934 739.865 389.17L596.087 362.283C599.266 348.142 602.602 333.577 606.692 319.682Z"/><path fill="#351721" transform="scale(0.046875 0.046875)" d="M807.973 422.26C808.686 423.278 808.782 424.033 808.931 425.231C810.892 440.996 811.918 456.906 813.572 472.71C817.368 508.43 821.409 544.123 825.695 579.787C813.982 572.91 801.72 567.128 790.272 559.751C787.996 567.62 786.85 575.903 785.001 583.901C781.588 588.173 769.735 596.393 764.616 601.417C766.178 595.657 767.106 589.657 768.408 583.825C771.015 572.43 773.717 561.056 776.513 549.706C787.398 507.323 797.886 464.839 807.973 422.26Z"/><path fill="#351721" transform="scale(0.046875 0.046875)" d="M786.807 407.26C791.751 410.741 796.607 414.168 801.699 417.449C798.679 428.749 796.86 440.53 794.024 451.926L758.098 596.198C757.874 596.579 758.058 596.34 757.329 596.675C752.653 592.473 748.602 587.062 744.561 582.229C750.863 551.953 758.938 521.974 765.966 491.849C769.669 475.978 773.788 460.231 777.567 444.389C780.527 431.986 782.885 419.413 786.807 407.26Z"/><path fill="#351721" transform="scale(0.046875 0.046875)" d="M563.143 553.787C573.841 556.266 584.726 558.077 595.484 560.297C622.138 565.799 648.716 571.229 675.47 576.23C697.396 580.328 719.225 584.965 741.215 588.717C744.783 593.353 748.197 598.149 751.707 602.836C713.734 597.375 676.121 588.62 638.452 581.38L602.428 574.308C594.858 572.854 585.697 572.143 578.686 569.1C573.893 567.02 566.507 558.016 563.143 553.787Z"/><path fill="#351721" transform="scale(0.046875 0.046875)" d="M797.783 363.297C801.964 366.375 807.526 376.055 811.535 380.557C808.195 390.534 806.6 401.02 803.237 410.967C799.08 406.998 793.885 404.007 789.356 400.445C793.003 388.387 795.18 375.625 797.783 363.297Z"/><path fill="#FBF6EF" transform="scale(0.046875 0.046875)" d="M749.092 326.564C749.892 326.444 750.699 326.333 751.509 326.309C755.984 326.175 760.036 328.462 763.148 331.555C765.274 333.667 767.342 336.511 767.276 339.649C767.243 341.208 766.636 343.13 765.397 344.141C762.97 346.123 756.058 337.252 752.527 336.767C750.673 336.512 748.884 337.401 747.511 338.568C745.81 340.013 745.374 341.247 745.204 343.425C745.488 347.543 747.172 351.392 747.41 355.41C747.505 357.017 746.972 357.9 745.969 359.08C744.668 359.496 744.292 359.628 742.94 359.135C740.464 358.233 738.363 355.235 737.366 352.929C735.306 348.167 735.867 342.235 737.814 337.531C739.985 332.285 743.929 328.728 749.092 326.564Z"/><path fill="#FBF6EF" transform="scale(0.046875 0.046875)" d="M660.119 309.126C662.281 309.32 664.239 309.628 666.238 310.516C669.832 312.11 672.623 315.097 673.967 318.791C674.617 320.551 675.025 323.565 674.067 325.268C672.404 328.223 664.553 319.21 659.923 319.983C658.959 320.558 658.361 320.991 657.789 321.981C655.884 325.277 656.788 328.798 657.757 332.214C658.688 333.976 660.42 336.444 659.757 338.489C659.379 339.653 658.26 340.897 657.186 341.463C656.022 342.076 654.966 341.96 653.779 341.504C650.878 340.39 648.86 336.556 647.977 333.792C646.288 328.504 647.029 322.081 649.653 317.216C651.979 312.903 655.524 310.527 660.119 309.126Z"/><path fill="#351721" transform="scale(0.046875 0.046875)" d="M795.028 571.142C805.003 577.514 817.204 581.898 826.393 589.208C827.145 589.806 827.637 589.9 827.743 590.85L826.371 590.704C815.076 587.817 803.3 586.26 791.877 583.859C792.884 579.611 793.975 575.379 795.028 571.142Z"/><path fill="#A17E45" transform="scale(0.046875 0.046875)" d="M263.242 429.902C258 424.465 254.155 413.549 252.877 406.147C250.735 393.733 254.966 383.953 262.065 373.945C273.158 358.307 292.574 343.945 311.768 340.745C334.308 336.986 343.055 349.323 352.983 366.925L364.769 387.845C368.463 394.374 372.546 401.472 378.85 405.836C388.652 412.621 402.837 410.534 413.813 408.714C414.103 411.31 414.449 413.912 414.654 416.515C414.228 426.284 410.335 453.931 405.433 462.062C398.797 461.908 359.547 465.791 354.597 467.964C359.416 479.86 362.605 492.091 365.633 504.543C363.119 506.569 360.686 509.259 360.291 512.601C360.167 513.66 360.275 514.644 360.939 515.516C361.654 516.457 362.656 516.836 363.813 516.814C364.874 516.793 365.923 516.473 366.94 516.203C370.107 533.264 366.733 559.553 365.234 576.997C372.068 574.989 379.875 574.523 386.351 571.495C389.867 569.851 395.503 565.028 399.271 564.831C400.629 564.759 401.088 565.227 402.013 566.049C402.363 567.578 401.98 568.621 401.356 570.008C394.365 585.539 376.472 591.523 361.803 597.286C357.784 578.659 355.103 559.598 349.919 541.254C341.893 512.853 328.946 479.355 301.947 464.217C309.035 471.531 315.398 478.829 319.973 487.995C315.787 495.014 311.453 501.889 305.875 507.906C284.627 530.827 251.536 541.129 223.053 551.631C223.978 554.964 224.854 558.337 225.385 561.757C226.334 567.887 227.411 579.785 223.298 584.987C222.271 586.287 221.262 586.575 219.681 586.762C214.999 582.847 213.114 566.117 210.985 559.988C209.71 556.32 208.046 553.365 205.772 550.234C207.084 549.592 208.39 548.937 209.69 548.27C236.16 534.704 262.251 517.756 271.811 487.972C273.808 476.879 273.296 467.857 271.441 456.786C270.901 453.559 270.5 449.958 269.146 446.961C265.954 446.215 264.457 443.897 262.494 441.478C262.24 437.535 262.605 433.787 263.242 429.902Z"/><path fill="#EAD7C3" transform="scale(0.046875 0.046875)" d="M331.038 435.373C336.375 419.192 339.912 409.545 347.803 394.033C355.31 404.384 364.61 414.697 376.746 419.594C390.085 424.977 401.992 421.818 414.654 416.515C414.228 426.284 410.335 453.931 405.433 462.062C398.797 461.908 359.547 465.791 354.597 467.964C352.917 465.424 351.703 461.988 350.274 459.255C345.389 449.911 339.386 441.894 331.038 435.373Z"/><path fill="#EAD7C3" transform="scale(0.046875 0.046875)" d="M311.003 365.503L311.621 365.578C311.019 366.901 303.909 371.087 302.1 372.725C298.607 375.918 295.54 379.548 292.973 383.525C287.086 392.55 284.041 403.035 279.853 412.883C276.742 420.198 272.847 427.156 268.998 434.101C267.483 433.008 266.124 432.077 265.014 430.559C266.714 428.015 268.157 425.63 269.345 422.803C268.323 419.698 266.8 416.766 265.632 413.711C263.328 407.684 262.823 401.546 265.643 395.548C273.014 379.874 295.752 370.828 311.003 365.503Z"/><path fill="#351721" transform="scale(0.046875 0.046875)" d="M400.929 382.847C400.705 382.562 400.48 382.279 400.271 381.983C393.565 372.46 391.285 357.035 393.251 345.717C395.849 330.754 410.245 319.444 421.937 311.2C433.581 302.99 451.245 295.165 465.867 298.025C481.614 301.105 492.117 328.393 498.808 341.513C501.593 346.974 504.686 352.397 508.237 357.399C515.728 367.95 528.855 373.542 541.404 375.573C541.545 375.596 541.687 375.615 541.829 375.636C541.441 377.734 540.994 379.838 540.703 381.951C527.126 383.938 513.974 382.574 502.687 374.163C496.22 369.345 491.445 362.747 486.847 356.219L486.568 357.184C483.044 369.155 473.297 382.68 479.964 395.066C484.079 402.712 490.741 409.037 495.143 416.703C506.715 436.856 512.374 460.781 513.504 483.907C513.858 491.15 513.32 498.42 513.573 505.668C513.462 519.239 511.51 533.076 510.1 546.576C517.146 540.068 533.412 531.368 543.143 531.634C544.78 531.679 545.73 532.097 546.839 533.343C547.222 534.628 547.547 534.938 546.842 536.153C545.351 538.727 542.583 541.267 540.581 543.464C530.63 554.379 521.139 559.861 507.052 563.817C499.808 533.326 491.889 502.999 483.3 472.86C472.595 470.24 461.603 468.442 450.705 466.832C448.832 471.124 446.751 474.525 443.407 477.848C429.191 491.975 396.511 503.389 377.618 511.625C374.162 513.132 370.197 514.391 366.94 516.203C365.923 516.473 364.874 516.793 363.813 516.814C362.656 516.836 361.654 516.457 360.939 515.516C360.275 514.644 360.167 513.66 360.291 512.601C360.686 509.259 363.119 506.569 365.633 504.543C362.605 492.091 359.416 479.86 354.597 467.964C359.547 465.791 398.797 461.908 405.433 462.062C410.335 453.931 414.228 426.284 414.654 416.515C414.449 413.912 414.103 411.31 413.813 408.714C413.214 405.191 412.479 401.859 411.407 398.449C409.906 398.635 408.288 398.907 406.775 398.741C404.934 398.538 403.037 397.501 401.918 396.021C399.275 392.525 400.495 386.854 400.929 382.847Z"/><path fill="#FBF6EF" transform="scale(0.046875 0.046875)" d="M354.597 467.964C359.547 465.791 398.797 461.908 405.433 462.062C403.539 466.862 401.816 472.838 398.862 477.039C394.731 482.914 372.195 501.141 365.633 504.543C362.605 492.091 359.416 479.86 354.597 467.964Z"/><path fill="#EAD7C3" transform="scale(0.046875 0.046875)" d="M404.868 380.845C404.931 380.677 404.996 380.51 405.057 380.341C406.623 375.965 405.756 370.769 405.565 366.193C404.564 342.276 417.207 334.109 437.123 324.446C439.156 323.465 441.197 322.501 443.246 321.553C430.866 338.856 419.24 358.23 413.866 378.991C412.318 384.967 412.778 391.369 411.212 397.153L411.407 398.449C409.906 398.635 408.288 398.907 406.775 398.741C404.934 398.538 403.037 397.501 401.918 396.021C399.275 392.525 400.495 386.854 400.929 382.847L404.868 380.845Z"/><path fill="#A17E45" transform="scale(0.046875 0.046875)" d="M404.868 380.845C407.643 382.706 410.132 393.568 411.212 397.153L411.407 398.449C409.906 398.635 408.288 398.907 406.775 398.741C404.934 398.538 403.037 397.501 401.918 396.021C399.275 392.525 400.495 386.854 400.929 382.847L404.868 380.845Z"/><path fill="#EAD7C3" transform="scale(0.046875 0.046875)" d="M450.705 466.832C454.785 454.942 457.66 443.661 457.579 430.982C466.763 444.184 477.387 457.827 483.3 472.86C472.595 470.24 461.603 468.442 450.705 466.832Z"/><path fill="#A17E45" transform="scale(0.046875 0.046875)" d="M198.989 627.588C206.484 627.826 213.982 627.899 221.48 627.807C230.195 641.869 237.507 656.774 246.258 670.858C254.557 656.822 262.036 642.241 269.997 628.006L292.527 627.96C292.961 663.824 292.532 699.751 292.558 735.623C284.542 735.714 276.499 735.502 268.481 735.433L268.342 708.875C268.403 697.663 268.28 686.45 267.973 675.242C261.714 685.833 255.896 696.688 249.308 707.083L242.654 708.009C236.251 697.058 230.256 685.911 223.532 675.139C223.358 695.248 223.619 715.386 223.676 735.497L198.718 735.5C199.813 699.614 198.996 663.498 198.989 627.588Z"/><path fill="#A17E45" transform="scale(0.046875 0.046875)" d="M592.258 625.155C600.19 625.708 608.248 625.235 616.212 625.479C619.342 637.845 623.203 650.073 626.863 662.291C634.239 686.918 641.918 711.425 649.024 736.133C640.442 736.343 631.838 736.136 623.25 736.262C621.629 730.779 620.483 724.775 618.113 719.58C616.829 718.81 614.629 719.186 613.14 719.249C605.212 719.341 597.281 719.083 589.347 719.201L583.839 736.071L557.834 736.292C563.117 721.875 567.258 706.946 571.78 692.272C578.87 669.981 585.697 647.607 592.258 625.155Z"/><path fill="#FBF6EF" transform="scale(0.046875 0.046875)" d="M603.308 663.964C606.825 668.647 611.505 691.287 613.316 698.321L603.972 698.287C600.621 698.272 597.27 698.224 593.92 698.144C596.38 686.63 600.01 675.264 603.308 663.964Z"/><path fill="#A17E45" transform="scale(0.046875 0.046875)" d="M739.477 629.43L763.967 629.464C777.605 629.471 793.642 628.141 804.432 638.229C811.001 644.37 813.73 652.86 814.083 661.664C814.484 671.653 811.323 681.801 804.459 689.194C797.345 696.856 788.177 699.567 777.996 699.99L764.01 699.944C763.92 712.132 764.085 724.333 764.135 736.522C755.755 736.635 747.374 736.653 738.994 736.575C739.481 700.862 739.642 665.146 739.477 629.43Z"/><path fill="#FBF6EF" transform="scale(0.046875 0.046875)" d="M764.116 650.734C771.093 650.776 780.484 649.787 786.124 654.611C788.871 656.96 790.012 660.254 790.135 663.797C790.297 668.479 788.417 671.563 785.388 674.947C778.903 680.163 771.762 679.064 764.061 678.523C763.9 669.299 763.753 659.95 764.116 650.734Z"/><path fill="#A17E45" transform="scale(0.046875 0.046875)" d="M657.72 629.444L680.379 629.453C693.889 629.474 708.734 628.64 719.651 638.048C726.488 643.94 729.807 652.449 730.369 661.325C730.975 670.883 728.2 681.73 721.693 688.951C714.508 696.924 704.984 699.443 694.625 700L682.435 700.102L682.463 736.33C674.328 736.463 666.174 736.299 658.038 736.244C658.45 700.652 657.194 665.026 657.72 629.444Z"/><path fill="#FBF6EF" transform="scale(0.046875 0.046875)" d="M682.527 651.314C688.922 651.318 696.776 650.494 702.051 654.75C704.65 656.843 706.262 659.923 706.502 663.252C706.845 667.82 705.094 671.221 702.225 674.617C695.924 679.343 689.803 679.038 682.364 678.953L682.527 651.314Z"/><path fill="#A17E45" transform="scale(0.046875 0.046875)" d="M418.032 651.651C419.468 651.522 420.909 651.448 422.351 651.432C431.288 651.392 439.241 654.032 445.641 660.452C456.597 671.443 457.48 685.471 457.4 700.105C440.792 700.055 424.021 699.633 407.432 700.283C408.174 703.674 408.838 707.047 410.85 709.959C413.346 713.569 416.997 715.676 421.307 716.346C429.485 717.618 435.589 714.077 441.962 709.571C444.403 712.24 446.385 715.013 448.402 718.012C450.231 720.774 452.208 723.457 454.113 726.168C448.483 731.244 442.075 734.923 434.588 736.406C423.534 738.596 409.368 737.661 399.851 731.093C391.812 725.546 387.428 716.917 385.786 707.447C383.395 693.66 385.474 677.917 393.748 666.365C399.822 657.884 407.807 653.281 418.032 651.651Z"/><path fill="#FBF6EF" transform="scale(0.046875 0.046875)" d="M420.183 671.617C424.154 671.857 426.956 672.22 429.963 674.988C432.068 676.927 435.294 681.432 435.029 684.476C434.905 685.902 434.631 686.187 433.678 687.133C430.945 687.855 427.347 687.386 424.509 687.309L409.089 687.091C409.597 684.094 410.173 681.037 411.523 678.284C413.434 674.392 416.192 672.864 420.183 671.617Z"/><path fill="#A17E45" transform="scale(0.046875 0.046875)" d="M340.81 651.191C341.248 651.162 341.686 651.141 342.124 651.127C350.571 650.928 358.749 654.1 364.853 659.941C375.804 670.599 376.068 685.651 376.143 699.885C360.161 700.004 344.178 700.026 328.196 699.949C328.878 703.6 329.549 707.065 331.753 710.166C334.113 713.487 337.604 715.494 341.604 716.144C349.772 717.472 356.077 714.162 362.551 709.729C365.787 712.772 368.224 716.625 370.775 720.241C372.126 722.072 373.362 724.014 374.646 725.895C369.247 731.867 360.913 735.769 353.007 736.838C341.801 738.353 328.441 736.968 319.253 729.834C310.735 723.219 307.017 713.432 305.845 702.964C304.315 689.294 306.719 675.219 315.496 664.297C322.144 656.024 330.401 652.264 340.81 651.191Z"/><path fill="#FBF6EF" transform="scale(0.046875 0.046875)" d="M339.794 671.566C343.128 671.325 346.623 671.862 349.232 674.115C353.032 677.396 353.552 682.335 353.962 687.007L342.552 687.104L328.576 687.262C329.172 684.417 329.889 681.387 331.098 678.732C332.98 674.605 335.647 672.979 339.794 671.566Z"/><path fill="#A17E45" transform="scale(0.046875 0.046875)" d="M475.428 631.265C483.031 630.882 490.695 631.005 498.309 630.957C498.179 638.238 498.117 645.519 498.123 652.8C503.252 652.853 508.393 652.767 513.523 652.745L513.493 673.495L498.002 673.491C498.03 680.564 498.023 687.637 497.98 694.71C497.932 699.248 497.517 704.122 498.095 708.626C498.433 711.262 499.371 713.866 501.629 715.448C505.064 717.855 509.646 717.071 513.503 716.412C513.601 722.564 513.533 728.728 513.539 734.881C510.88 736.632 506.382 737.289 503.269 737.428C495.059 737.794 485.872 736.386 479.729 730.476C476.553 727.421 474.574 723.502 473.624 719.225C472.114 712.429 472.779 704.78 472.805 697.836C472.828 689.67 472.789 681.504 472.687 673.339C469.139 673.077 465.515 673.216 461.955 673.22L461.953 653.768C465.811 653.666 469.685 653.707 473.545 653.678C473.773 648.851 472.428 635.07 474.09 631.596L475.428 631.265Z"/><path fill="#351721" transform="scale(0.046875 0.046875)" d="M542.134 225.02C543.723 232.546 543.55 240.677 539.764 247.562C536.243 253.962 530.909 256.718 524.185 258.673C522.691 268.787 520.231 276.235 512.717 283.419C507.919 287.422 502.016 290.606 495.798 291.641C487.672 293.008 479.333 291.145 472.562 286.449C465.486 281.536 460.698 273.97 459.285 265.473C457.867 256.608 460.348 247.253 465.651 240.048C472.007 231.412 480.954 227.663 491.307 226.158C506.561 224.795 519.885 237.381 531.345 234.496C536.624 233.167 539.549 229.49 542.134 225.02Z"/><path fill="#A17E45" transform="scale(0.046875 0.046875)" d="M352.346 268.668C360.245 268.376 367.522 270.714 373.43 276.056C381.037 282.934 385.442 294.19 385.951 304.309C386.347 312.181 383.893 319.818 378.486 325.667C372.513 332.127 364.629 334.77 356.011 335.114C347.874 335.104 340.839 333.087 334.302 328.162C327.654 323.154 322.664 315.974 321.667 307.573C320.56 298.248 323.573 288.504 329.331 281.149C335.219 273.629 342.986 269.822 352.346 268.668Z"/><path fill="#FBF6EF" transform="scale(0.046875 0.046875)" d="M342.347 307.184C350.411 313.061 356.316 314.428 366.32 313.969C365.748 317.194 365.113 319.722 363.334 322.524C361.169 324.292 358.954 325.474 356.102 325.62C353.305 325.763 350.676 324.572 348.619 322.734C344.133 318.726 342.644 312.966 342.347 307.184Z"/><path fill="#A17E45" transform="scale(0.046875 0.046875)" d="M541.829 375.636C543.709 373.294 545.998 370.277 548.703 368.899C549.969 368.875 549.901 368.857 550.827 369.724C551.292 371.267 551.503 372.523 551.602 374.133C551.772 374.256 551.943 374.377 552.112 374.502C552.631 374.885 553.091 375.276 553.562 375.713C553.435 378.23 552.158 380.897 550.234 382.563C548.711 383.882 547.109 384.597 545.066 384.387C543.185 384.193 542.018 383.217 540.703 381.951C540.994 379.838 541.441 377.734 541.829 375.636Z"/></svg>